<svg width="1280" height="640" fill="none" xmlns="http://www.w3.org/2000/svg">
  <path fill="#0D1117" d="M0 0h1280v640H0z" />
  <path d="M832.921 534 731.106 386.4c44.795-15.2 100.312-67.7 100.312-143.3 0-46.1-15.132-87.1-41.788-113.1-30.364-30.2-64.937-46-143.603-46H464.143C447.608 84 444 91.9 444 104.8v431.3c0 16.6 7.215 20.9 20.143 20.9h71.45c13.028 0 20.945-4.3 20.945-20.9V184.8h96.002c37.48 0 66.341 23.7 66.341 61.2 0 33.8-33.17 58.3-68.545 58.3h-14.431c-16.635 0-20.944 7.9-20.944 20.9v57.6c0 20.1 1.503 28 7.917 36.7l77.964 115.9c10.122 15.1 18.74 21.6 36.077 21.6h85.18c13.628 0 17.236-13 10.822-23z" fill="url(#a)" opacity=".5" />
  <path d="m587.424 321.88-22.56-32.8c9.92-3.36 22.24-15.04 22.24-31.84 0-10.24-3.36-19.36-9.28-25.12-6.72-6.72-14.4-10.24-31.84-10.24h-40.32c-3.68 0-4.48 1.76-4.48 4.64v95.84c0 3.68 1.6 4.64 4.48 4.64h15.84c2.88 0 4.64-.96 4.64-4.64v-78.08h21.28c8.32 0 14.72 5.28 14.72 13.6 0 7.52-7.36 12.96-15.2 12.96h-3.2c-3.68 0-4.64 1.76-4.64 4.64v12.8c0 4.48.32 6.24 1.76 8.16l17.28 25.76c2.24 3.36 4.16 4.8 8 4.8h18.88c3.04 0 3.84-2.88 2.4-5.12zm66.082-16.8h-10.08v-61.12h9.6c3.68 0 4.64-1.76 4.64-4.64v-12.96c0-2.88-.96-4.64-4.64-4.64h-44.48c-3.68 0-4.64 1.76-4.64 4.64v12.96c0 2.88.96 4.64 4.64 4.64h9.76v61.12h-10.08c-3.68 0-4.64 1.76-4.64 4.64v12.64c0 2.88.96 4.64 4.64 4.64h45.28c3.68 0 4.64-1.76 4.64-4.64v-12.64c0-2.88-.96-4.64-4.64-4.64zm119.734-83.52h-15.36c-5.28 0-6.08 3.52-7.2 5.44l-22.08 39.36L706.68 227c-1.28-1.92-1.92-5.44-7.36-5.44h-15.84c-3.68 0-4.64 1.76-4.64 4.64v96.16c0 3.68 1.76 4.64 4.64 4.64h15.84c2.88 0 4.64-.96 4.64-4.64v-54.24l16.16 28c.8 1.28 2.08 3.36 4.48 3.36h8c2.4 0 3.84-2.08 4.64-3.36l16-28v54.24c0 3.68 1.76 4.64 4.64 4.64h15.36c2.88 0 4.64-.96 4.64-4.64V226.2c0-2.88-.96-4.64-4.64-4.64z" fill="#fff" />
  <path d="M311.347 391.568c-1.997 0-3.718-.392-5.164-1.175-1.446-.807-2.559-1.959-3.339-3.456-.758-1.498-1.136-3.283-1.136-5.357 0-2.073.39-3.847 1.17-5.322.78-1.498 1.905-2.638 3.374-3.421 1.469-.784 3.224-1.175 5.267-1.175 3.167 0 5.496.887 6.988 2.661 1.515 1.774 2.169 4.204 1.962 7.292h-15.491l.035-3.007 11.256.035c-.091-1.106-.573-1.993-1.445-2.661-.873-.669-1.974-1.003-3.305-1.003-1.882 0-3.305.588-4.269 1.763-.964 1.175-1.446 2.845-1.446 5.011 0 1.244.218 2.361.654 3.352.436.968 1.056 1.728 1.859 2.281.826.53 1.836.795 3.03.795 1.354 0 2.478-.323 3.373-.968.918-.645 1.48-1.509 1.687-2.592h4.131c-.275 2.143-1.239 3.836-2.892 5.081-1.629 1.244-3.729 1.866-6.299 1.866zM328.917 391.153c-1.745 0-3.156-.507-4.235-1.521-1.055-1.013-1.583-2.338-1.583-3.974v-.622c0-1.682.528-3.03 1.583-4.043 1.079-1.014 2.49-1.521 4.235-1.521h7.194v-1.693c0-.692-.183-1.256-.55-1.694-.368-.461-.941-.691-1.722-.691h-10.052v-3.318h10.982c1.078 0 2.019.208 2.823.622a4.334 4.334 0 0 1 1.858 1.832c.459.783.689 1.774.689 2.972v13.651h-11.222zm.826-3.145h6.368v-5.391h-6.368c-.803 0-1.446.23-1.928.691-.459.438-.688 1.048-.688 1.832v.414c0 .761.24 1.36.722 1.798.482.437 1.113.656 1.894.656zM351.099 391.153v-25.47h4.131v25.47h-4.131zm-6.712 0v-3.352h17.625v3.352h-17.625zm2.478-22.118v-3.352h6.3v3.352h-6.3zM372.112 391.153v-25.47h4.131v25.47h-4.131zm-6.713 0v-3.352h17.625v3.352h-17.625zm2.479-22.118v-3.352h6.299v3.352h-6.299zM395.155 385.243l5.474-13.201h4.165l-10.671 25.263h-4.235l3.167-7.431-7.504-17.832h4.2l5.404 13.201zM465.683 372.042c1.285 0 2.421.276 3.408.829a5.88 5.88 0 0 1 2.307 2.316c.55.99.826 2.142.826 3.456v12.51h-4.097v-12.614c0-.922-.287-1.67-.86-2.246-.551-.599-1.285-.899-2.203-.899h-6.059v15.759h-4.131v-19.111h10.809zM486.042 391.153c-1.217 0-2.261-.253-3.133-.76a4.998 4.998 0 0 1-1.997-2.143c-.459-.945-.688-2.039-.688-3.283V368.62l4.131-2.073v18.42c0 .576.08 1.083.241 1.521.16.437.47.771.929 1.002.482.207 1.171.311 2.066.311h5.404v3.352h-6.953zm-10.052-15.724v-3.353h13.873v3.353H475.99zM505.711 391.568c-1.996 0-3.717-.392-5.163-1.175-1.446-.807-2.559-1.959-3.339-3.456-.758-1.498-1.136-3.283-1.136-5.357 0-2.073.39-3.847 1.17-5.322.78-1.498 1.905-2.638 3.374-3.421 1.468-.784 3.224-1.175 5.267-1.175 3.167 0 5.496.887 6.988 2.661 1.514 1.774 2.168 4.204 1.962 7.292h-15.491l.034-3.007 11.257.035c-.092-1.106-.574-1.993-1.446-2.661-.872-.669-1.973-1.003-3.304-1.003-1.882 0-3.305.588-4.269 1.763-.964 1.175-1.446 2.845-1.446 5.011 0 1.244.218 2.361.654 3.352.436.968 1.056 1.728 1.859 2.281.826.53 1.836.795 3.029.795 1.354 0 2.479-.323 3.374-.968.918-.645 1.48-1.509 1.687-2.592h4.131c-.276 2.143-1.24 3.836-2.892 5.081-1.629 1.244-3.729 1.866-6.3 1.866zM528.961 372.076c1.263 0 2.353.288 3.271.864.918.576 1.618 1.371 2.1 2.385.482.991.723 2.131.723 3.421v1.97h-4.131v-2.073a3.74 3.74 0 0 0-.345-1.625 2.45 2.45 0 0 0-.964-1.14c-.436-.3-.998-.449-1.686-.449h-4.889v15.724h-4.096v-19.077h10.017zM547.736 391.568c-1.996 0-3.718-.392-5.163-1.175-1.446-.807-2.559-1.959-3.34-3.456-.757-1.498-1.136-3.283-1.136-5.357 0-2.073.39-3.847 1.171-5.322.78-1.498 1.905-2.638 3.373-3.421 1.469-.784 3.225-1.175 5.267-1.175 3.167 0 5.497.887 6.988 2.661 1.515 1.774 2.169 4.204 1.963 7.292h-15.491l.034-3.007 11.257.035c-.092-1.106-.574-1.993-1.446-2.661-.872-.669-1.974-1.003-3.305-1.003-1.882 0-3.304.588-4.268 1.763-.964 1.175-1.446 2.845-1.446 5.011 0 1.244.218 2.361.654 3.352.436.968 1.056 1.728 1.859 2.281.826.53 1.836.795 3.029.795 1.354 0 2.479-.323 3.374-.968.918-.645 1.48-1.509 1.687-2.592h4.131c-.276 2.143-1.24 3.836-2.892 5.081-1.63 1.244-3.729 1.866-6.3 1.866zM560.934 391.153v-3.352h9.674c.734 0 1.331-.208 1.79-.622.459-.438.688-1.014.688-1.728 0-.668-.229-1.221-.688-1.659-.459-.461-1.079-.691-1.859-.691h-4.2c-1.171 0-2.203-.231-3.098-.691-.895-.461-1.595-1.095-2.1-1.901-.482-.83-.723-1.786-.723-2.869 0-1.152.241-2.142.723-2.972a4.998 4.998 0 0 1 2.065-1.901c.895-.46 1.917-.691 3.064-.691h9.432v3.353h-9.225c-.735 0-1.331.195-1.79.587-.459.392-.689.933-.689 1.624 0 .622.23 1.141.689 1.556.459.391 1.078.587 1.858.587h4.2c1.194 0 2.226.242 3.098.726a5.108 5.108 0 0 1 2.066 2.004c.505.83.757 1.809.757 2.938 0 1.152-.241 2.154-.723 3.006a5.102 5.102 0 0 1-2.065 2.005c-.872.461-1.893.691-3.064.691h-9.88zM591.104 391.153c-1.217 0-2.261-.253-3.133-.76a4.998 4.998 0 0 1-1.997-2.143c-.459-.945-.688-2.039-.688-3.283V368.62l4.131-2.073v18.42c0 .576.08 1.083.241 1.521.16.437.47.771.929 1.002.482.207 1.171.311 2.066.311h5.404v3.352h-6.953zm-10.052-15.724v-3.353h13.873v3.353h-13.873zM608.639 391.153v-19.077h4.097v19.077h-4.097zm-6.713 0v-3.352h17.247v3.352h-17.247zm2.444-15.724v-3.353h6.3v3.353h-6.3zm4.028-6.359v-4.217h4.475v4.217h-4.475zM633.782 372.042c1.286 0 2.422.276 3.409.829a5.884 5.884 0 0 1 2.306 2.316c.551.99.826 2.142.826 3.456v12.51h-4.096v-12.614c0-.922-.287-1.67-.861-2.246-.551-.599-1.285-.899-2.203-.899h-6.059v15.759h-4.131v-19.111h10.809zM644.02 382.79v-4.355c0-1.29.275-2.407.826-3.352a5.708 5.708 0 0 1 2.307-2.246c1.009-.553 2.145-.83 3.408-.83l10.775.035v19.007c0 1.245-.23 2.339-.689 3.284-.459.944-1.125 1.67-1.997 2.177-.872.53-1.939.795-3.201.795h-10.982v-3.353h9.571c1.032 0 1.824-.184 2.375-.553.551-.368.826-1.129.826-2.28v-1.936h-6.678c-1.263 0-2.399-.265-3.408-.795a6.016 6.016 0 0 1-2.307-2.246c-.551-.968-.826-2.085-.826-3.352zm4.097-.104c0 .922.286 1.682.86 2.281.574.599 1.308.898 2.203.898h6.025v-10.506h-6.025c-.895 0-1.629.3-2.203.899-.574.576-.86 1.336-.86 2.281v4.147zM718.748 391.188c-1.286 0-2.422-.277-3.408-.83a5.884 5.884 0 0 1-2.307-2.315c-.551-.991-.826-2.143-.826-3.456v-12.511h4.097v12.614c0 .922.275 1.682.826 2.281.573.576 1.319.864 2.237.864h6.059v-15.759h4.131v19.112h-10.809zM739.829 391.153v-25.47h4.131v25.47h-4.131zm-6.713 0v-3.352h17.626v3.352h-17.626zm2.479-22.118v-3.352h6.299v3.352h-6.299zM764.456 391.153c-1.216 0-2.261-.253-3.133-.76a4.996 4.996 0 0 1-1.996-2.143c-.459-.945-.689-2.039-.689-3.283V368.62l4.131-2.073v18.42c0 .576.08 1.083.241 1.521.161.437.471.771.93 1.002.481.207 1.17.311 2.065.311h5.405v3.352h-6.954zm-10.052-15.724v-3.353h13.873v3.353h-13.873zM781.991 391.153v-19.077h4.097v19.077h-4.097zm-6.712 0v-3.352h17.246v3.352h-17.246zm2.444-15.724v-3.353h6.3v3.353h-6.3zm4.027-6.359v-4.217h4.476v4.217h-4.476zM802.178 391.153v-21.15c0-1.221.241-2.293.723-3.214a5.483 5.483 0 0 1 2.134-2.212c.918-.53 2.008-.795 3.27-.795h5.749v3.352h-4.337c-.643 0-1.228.081-1.756.242-.528.138-.941.403-1.239.795-.299.392-.448.979-.448 1.763v21.219h-4.096zm-4.234-15.724v-3.353h13.838v3.353h-13.838zm-1.618 15.724v-3.352h17.349v3.352h-17.349zM823.81 391.188c-1.285 0-2.421-.277-3.408-.83a5.884 5.884 0 0 1-2.307-2.315c-.551-.991-.826-2.143-.826-3.456v-12.511h4.097v12.614c0 .922.275 1.682.826 2.281.573.576 1.319.864 2.237.864h6.059v-15.759h4.131v19.112H823.81zM849.16 372.042c1.285 0 2.421.276 3.408.829a5.884 5.884 0 0 1 2.306 2.316c.551.99.826 2.142.826 3.456v12.51h-4.096v-12.614c0-.922-.287-1.67-.861-2.246-.551-.599-1.285-.899-2.203-.899h-6.059v15.759h-4.131v-19.111h10.81zM869.002 391.153c-1.974 0-3.718-.392-5.233-1.175-1.492-.783-2.651-1.889-3.477-3.318-.826-1.451-1.239-3.145-1.239-5.08s.413-3.606 1.239-5.011c.826-1.428 1.985-2.534 3.477-3.318 1.515-.783 3.259-1.175 5.233-1.175h7.332v3.353h-7.332c-1.768 0-3.179.553-4.235 1.658-1.055 1.106-1.583 2.604-1.583 4.493 0 1.912.528 3.433 1.583 4.562 1.056 1.106 2.467 1.659 4.235 1.659h7.332v3.352h-7.332zM890.53 391.153c-1.216 0-2.26-.253-3.132-.76a4.998 4.998 0 0 1-1.997-2.143c-.459-.945-.688-2.039-.688-3.283V368.62l4.131-2.073v18.42c0 .576.08 1.083.241 1.521.16.437.47.771.929 1.002.482.207 1.17.311 2.065.311h5.405v3.352h-6.954zm-10.052-15.724v-3.353h13.874v3.353h-13.874zM908.066 391.153v-19.077h4.096v19.077h-4.096zm-6.713 0v-3.352H918.6v3.352h-17.247zm2.444-15.724v-3.353h6.3v3.353h-6.3zm4.028-6.359v-4.217h4.475v4.217h-4.475zM931.006 391.568c-1.997 0-3.718-.403-5.164-1.21-1.422-.806-2.524-1.947-3.304-3.421-.758-1.498-1.136-3.272-1.136-5.322 0-2.074.378-3.848 1.136-5.322.78-1.475 1.882-2.615 3.304-3.422 1.446-.806 3.167-1.209 5.164-1.209 2.984 0 5.324.887 7.023 2.661 1.698 1.751 2.547 4.181 2.547 7.292 0 2.05-.39 3.824-1.17 5.322a8.045 8.045 0 0 1-3.305 3.421c-1.423.807-3.121 1.21-5.095 1.21zm0-3.387c1.675 0 2.995-.588 3.959-1.763.987-1.175 1.48-2.776 1.48-4.803 0-2.051-.493-3.652-1.48-4.804-.964-1.175-2.284-1.763-3.959-1.763-1.721 0-3.064.588-4.028 1.763-.964 1.152-1.445 2.753-1.445 4.804 0 2.027.481 3.628 1.445 4.803.964 1.175 2.307 1.763 4.028 1.763zM954.222 372.042c1.285 0 2.421.276 3.408.829a5.877 5.877 0 0 1 2.306 2.316c.551.99.826 2.142.826 3.456v12.51h-4.096v-12.614c0-.922-.287-1.67-.861-2.246-.551-.599-1.285-.899-2.203-.899h-6.059v15.759h-4.131v-19.111h10.81zM969.795 391.153c-1.744 0-3.156-.507-4.234-1.521-1.056-1.013-1.584-2.338-1.584-3.974v-.622c0-1.682.528-3.03 1.584-4.043 1.078-1.014 2.49-1.521 4.234-1.521h7.195v-1.693c0-.692-.184-1.256-.551-1.694-.367-.461-.941-.691-1.721-.691h-10.052v-3.318h10.981c1.079 0 2.02.208 2.823.622a4.336 4.336 0 0 1 1.859 1.832c.459.783.688 1.774.688 2.972v13.651h-11.222zm.826-3.145h6.369v-5.391h-6.369c-.803 0-1.446.23-1.928.691-.459.438-.688 1.048-.688 1.832v.414c0 .761.241 1.36.723 1.798.482.437 1.113.656 1.893.656zM991.978 391.153v-25.47h4.131v25.47h-4.131zm-6.713 0v-3.352h17.625v3.352h-17.625zm2.479-22.118v-3.352h6.299v3.352h-6.299zM434.299 416.451v-3.629h5.99c1.4 0 2.524-.392 3.373-1.175.849-.807 1.274-1.855 1.274-3.145 0-1.244-.402-2.246-1.205-3.007-.803-.76-1.87-1.14-3.201-1.14h-6.231v-3.629h6.231c1.79 0 3.35.323 4.681.968 1.354.622 2.399 1.52 3.133 2.695.734 1.175 1.102 2.546 1.102 4.113 0 1.59-.379 2.983-1.136 4.182-.758 1.198-1.825 2.131-3.202 2.799-1.354.645-2.949.968-4.785.968h-6.024zm-3.098 8.397v-24.122h4.337v24.122h-4.337zM463.298 405.772c1.262 0 2.352.288 3.27.864.918.576 1.618 1.371 2.1 2.384.482.991.723 2.131.723 3.422v1.97h-4.131v-2.074c0-.599-.115-1.141-.344-1.624a2.468 2.468 0 0 0-.964-1.141c-.436-.299-.999-.449-1.687-.449h-4.888v15.724h-4.097v-19.076h10.018zM481.866 425.263c-1.997 0-3.718-.403-5.164-1.209-1.423-.807-2.524-1.947-3.305-3.422-.757-1.497-1.136-3.271-1.136-5.322 0-2.074.379-3.848 1.136-5.322.781-1.475 1.882-2.615 3.305-3.421 1.446-.807 3.167-1.21 5.164-1.21 2.983 0 5.324.887 7.022 2.661 1.699 1.751 2.548 4.182 2.548 7.292 0 2.051-.39 3.825-1.171 5.322a8.04 8.04 0 0 1-3.304 3.422c-1.423.806-3.121 1.209-5.095 1.209zm0-3.387c1.675 0 2.995-.587 3.959-1.762.987-1.175 1.48-2.776 1.48-4.804 0-2.05-.493-3.652-1.48-4.804-.964-1.175-2.284-1.762-3.959-1.762-1.721 0-3.064.587-4.028 1.762-.964 1.152-1.446 2.754-1.446 4.804 0 2.028.482 3.629 1.446 4.804.964 1.175 2.307 1.762 4.028 1.762zM494.307 416.485v-4.354c0-1.291.275-2.408.826-3.353a5.712 5.712 0 0 1 2.306-2.246c1.01-.553 2.146-.829 3.408-.829l10.775.034v19.008c0 1.244-.229 2.338-.688 3.283-.459.945-1.125 1.67-1.997 2.177-.872.53-1.939.795-3.201.795h-10.982v-3.352h9.57c1.033 0 1.825-.185 2.375-.553.551-.369.827-1.129.827-2.281v-1.935h-6.679c-1.262 0-2.398-.265-3.408-.795a6.016 6.016 0 0 1-2.306-2.247c-.551-.967-.826-2.085-.826-3.352zm4.096-.104c0 .922.287 1.682.861 2.281.573.599 1.308.899 2.203.899h6.024v-10.506h-6.024c-.895 0-1.63.299-2.203.898-.574.576-.861 1.337-.861 2.281v4.147zM526.335 405.772c1.262 0 2.352.288 3.27.864.918.576 1.618 1.371 2.1 2.384.482.991.723 2.131.723 3.422v1.97h-4.131v-2.074c0-.599-.115-1.141-.344-1.624a2.468 2.468 0 0 0-.964-1.141c-.436-.299-.998-.449-1.687-.449h-4.888v15.724h-4.097v-19.076h10.018zM541.667 424.848c-1.744 0-3.155-.506-4.234-1.52-1.056-1.014-1.584-2.339-1.584-3.974v-.623c0-1.681.528-3.029 1.584-4.043 1.079-1.014 2.49-1.521 4.234-1.521h7.195v-1.693c0-.691-.184-1.256-.551-1.693-.367-.461-.941-.692-1.721-.692h-10.052v-3.317h10.981c1.079 0 2.02.207 2.823.622a4.328 4.328 0 0 1 1.859 1.831c.459.784.689 1.774.689 2.972v13.651h-11.223zm.826-3.144h6.369v-5.392h-6.369c-.803 0-1.445.231-1.927.691-.459.438-.689 1.049-.689 1.832v.415c0 .76.241 1.359.723 1.797.482.438 1.113.657 1.893.657zM555.795 424.848v-19.076h14.114c1.285 0 2.387.265 3.304.795a5.213 5.213 0 0 1 2.1 2.246c.482.945.723 2.062.723 3.352v12.683h-3.89V411.82c0-.807-.206-1.452-.619-1.936-.413-.507-.953-.76-1.618-.76h-2.066v15.724h-3.855v-15.724h-4.303v15.724h-3.89zM576.807 424.848v-19.076h14.114c1.285 0 2.387.265 3.305.795a5.213 5.213 0 0 1 2.1 2.246c.482.945.723 2.062.723 3.352v12.683h-3.89V411.82c0-.807-.207-1.452-.62-1.936-.413-.507-.952-.76-1.618-.76h-2.065v15.724H585v-15.724h-4.303v15.724h-3.89zM606.013 424.848v-19.076h4.096v19.076h-4.096zm-6.713 0v-3.352h17.246v3.352H599.3zm2.444-15.724v-3.352h6.3v3.352h-6.3zm4.028-6.359v-4.216h4.475v4.216h-4.475zM631.156 405.737c1.285 0 2.421.277 3.408.83a5.862 5.862 0 0 1 2.306 2.315c.551.991.827 2.143.827 3.456v12.51H633.6v-12.614c0-.921-.287-1.67-.861-2.246-.55-.599-1.285-.899-2.203-.899h-6.058v15.759h-4.131v-19.111h10.809zM641.393 416.485v-4.354c0-1.291.276-2.408.827-3.353a5.705 5.705 0 0 1 2.306-2.246c1.01-.553 2.146-.829 3.408-.829l10.775.034v19.008c0 1.244-.23 2.338-.688 3.283-.459.945-1.125 1.67-1.997 2.177-.872.53-1.939.795-3.202.795h-10.981v-3.352h9.57c1.033 0 1.824-.185 2.375-.553.551-.369.826-1.129.826-2.281v-1.935h-6.678c-1.262 0-2.398-.265-3.408-.795a6.009 6.009 0 0 1-2.306-2.247c-.551-.967-.827-2.085-.827-3.352zm4.097-.104c0 .922.287 1.682.861 2.281.573.599 1.308.899 2.203.899h6.024v-10.506h-6.024c-.895 0-1.63.299-2.203.898-.574.576-.861 1.337-.861 2.281v4.147zM684.279 424.848v-24.122h4.337v20.494h12.255v3.628h-16.592zM709.766 424.848c-1.744 0-3.155-.506-4.234-1.52-1.055-1.014-1.583-2.339-1.583-3.974v-.623c0-1.681.528-3.029 1.583-4.043 1.079-1.014 2.49-1.521 4.234-1.521h7.195v-1.693c0-.691-.183-1.256-.551-1.693-.367-.461-.941-.692-1.721-.692h-10.052v-3.317h10.982c1.078 0 2.019.207 2.822.622a4.323 4.323 0 0 1 1.859 1.831c.459.784.689 1.774.689 2.972v13.651h-11.223zm.827-3.144h6.368v-5.392h-6.368c-.804 0-1.446.231-1.928.691-.459.438-.689 1.049-.689 1.832v.415c0 .76.241 1.359.723 1.797.482.438 1.113.657 1.894.657zM736.218 405.737c1.285 0 2.421.277 3.408.83a5.862 5.862 0 0 1 2.306 2.315c.551.991.827 2.143.827 3.456v12.51h-4.097v-12.614c0-.921-.287-1.67-.861-2.246-.55-.599-1.285-.899-2.203-.899h-6.058v15.759h-4.131v-19.111h10.809zM746.455 416.485v-4.354c0-1.291.276-2.408.827-3.353a5.705 5.705 0 0 1 2.306-2.246c1.01-.553 2.146-.829 3.408-.829l10.775.034v19.008c0 1.244-.229 2.338-.688 3.283-.459.945-1.125 1.67-1.997 2.177-.872.53-1.939.795-3.202.795h-10.981v-3.352h9.57c1.033 0 1.825-.185 2.375-.553.551-.369.826-1.129.826-2.281v-1.935h-6.678c-1.262 0-2.398-.265-3.408-.795a6.009 6.009 0 0 1-2.306-2.247c-.551-.967-.827-2.085-.827-3.352zm4.097-.104c0 .922.287 1.682.861 2.281.573.599 1.308.899 2.203.899h6.024v-10.506h-6.024c-.895 0-1.63.299-2.203.898-.574.576-.861 1.337-.861 2.281v4.147zM773.905 424.883c-1.285 0-2.421-.276-3.408-.829a5.877 5.877 0 0 1-2.306-2.316c-.551-.991-.826-2.143-.826-3.456v-12.51h4.096v12.614c0 .921.275 1.682.826 2.281.574.576 1.32.864 2.238.864h6.059v-15.759h4.131v19.111h-10.81zM793.816 424.848c-1.744 0-3.156-.506-4.234-1.52-1.056-1.014-1.584-2.339-1.584-3.974v-.623c0-1.681.528-3.029 1.584-4.043 1.078-1.014 2.49-1.521 4.234-1.521h7.195v-1.693c0-.691-.184-1.256-.551-1.693-.367-.461-.941-.692-1.721-.692h-10.052v-3.317h10.981c1.079 0 2.02.207 2.823.622a4.328 4.328 0 0 1 1.859 1.831c.459.784.688 1.774.688 2.972v13.651h-11.222zm.826-3.144h6.369v-5.392h-6.369c-.803 0-1.446.231-1.928.691-.459.438-.688 1.049-.688 1.832v.415c0 .76.241 1.359.723 1.797.482.438 1.113.657 1.893.657zM809.493 416.485v-4.354c0-1.291.275-2.408.826-3.353a5.718 5.718 0 0 1 2.306-2.246c1.01-.553 2.146-.829 3.408-.829l10.775.034v19.008c0 1.244-.229 2.338-.688 3.283-.459.945-1.125 1.67-1.997 2.177-.872.53-1.939.795-3.201.795H809.94v-3.352h9.57c1.033 0 1.825-.185 2.376-.553.55-.369.826-1.129.826-2.281v-1.935h-6.679c-1.262 0-2.398-.265-3.408-.795a6.023 6.023 0 0 1-2.306-2.247c-.551-.967-.826-2.085-.826-3.352zm4.096-.104c0 .922.287 1.682.861 2.281.574.599 1.308.899 2.203.899h6.024v-10.506h-6.024c-.895 0-1.629.299-2.203.898-.574.576-.861 1.337-.861 2.281v4.147zM839.283 425.263c-1.996 0-3.717-.392-5.163-1.175-1.446-.806-2.559-1.958-3.34-3.456-.757-1.497-1.136-3.283-1.136-5.356 0-2.074.391-3.848 1.171-5.323.78-1.497 1.905-2.638 3.373-3.421 1.469-.783 3.225-1.175 5.267-1.175 3.168 0 5.497.887 6.989 2.661 1.514 1.774 2.168 4.205 1.962 7.292h-15.491l.034-3.007 11.257.035c-.092-1.106-.574-1.993-1.446-2.661-.872-.668-1.973-1.002-3.305-1.002-1.881 0-3.304.587-4.268 1.762s-1.446 2.846-1.446 5.011c0 1.244.218 2.362.654 3.353.436.967 1.056 1.728 1.859 2.28.826.53 1.836.795 3.029.795 1.354 0 2.479-.322 3.374-.967.918-.645 1.48-1.509 1.687-2.592h4.131c-.276 2.142-1.24 3.836-2.892 5.08-1.629 1.244-3.729 1.866-6.3 1.866z" fill="#fff" fill-opacity=".7" />
  <path d="M280.873 378.971v-4.493h7.358c1.119 0 2.109-.187 2.969-.561.861-.404 1.535-.951 2.023-1.642.487-.72.731-1.541.731-2.462 0-.893-.215-1.656-.645-2.29-.431-.634-1.019-1.123-1.765-1.469-.746-.345-1.592-.518-2.538-.518h-8.133V361h8.133c2.036 0 3.844.346 5.421 1.037 1.607.691 2.869 1.699 3.787 3.024.918 1.296 1.377 2.88 1.377 4.752 0 1.152-.272 2.275-.817 3.369-.546 1.095-1.32 2.088-2.324 2.981-1.004.864-2.223 1.555-3.658 2.073-1.434.49-3.055.735-4.862.735h-7.057zM277 391.153V361h5.422v30.153H277zm16.954 0a13.779 13.779 0 0 0-.947-3.931c-.516-1.325-1.247-2.592-2.194-3.802-.918-1.209-2.051-2.318-3.4-3.326-1.348-1.037-2.926-1.93-4.733-2.678l6.024-1.296c1.808.921 3.371 1.958 4.691 3.11 1.319 1.152 2.409 2.39 3.27 3.715a15.806 15.806 0 0 1 2.022 4.061 16.34 16.34 0 0 1 .818 4.147h-5.551zM437.301 391.153V361h5.378v30.153h-5.378zM429.985 361h20.01v4.536h-20.01V361zm0 25.617h20.01v4.536h-20.01v-4.536zM685.236 391.153V361h7.53l3.701 14.817 1.119 5.443 1.118-5.443L702.448 361h7.143v30.153h-5.163v-14.99l.172-6.178-1.463 6.178-3.701 14.99h-4.045l-3.658-14.99-1.42-6.307.087 6.307v14.99h-5.164z" fill="#fff" />
  <defs>
    <linearGradient id="a" x1="444" y1="557" x2="444" y2="84" gradientUnits="userSpaceOnUse">
      <stop stop-color="#FF97D3" stop-opacity=".05" />
      <stop offset="1" stop-color="#FF0844" />
    </linearGradient>
  </defs>
</svg>