<svg width="1280" height="640" viewBox="0 0 1280 640" fill="none" xmlns="http://www.w3.org/2000/svg">
<g opacity="0.5">
<path d="M832.921 534L731.106 386.4C775.901 371.2 831.418 318.7 831.418 243.1C831.418 197 816.286 156 789.63 130C759.266 99.8 724.693 84 646.027 84H464.143C447.608 84 444 91.9 444 104.8V536.1C444 552.7 451.215 557 464.143 557H535.593C548.621 557 556.538 552.7 556.538 536.1V184.8H652.54C690.02 184.8 718.881 208.5 718.881 246C718.881 279.8 685.711 304.3 650.336 304.3H635.905C619.27 304.3 614.961 312.2 614.961 325.2V382.8C614.961 402.9 616.464 410.8 622.878 419.5L700.842 535.4C710.964 550.5 719.582 557 736.919 557H822.099C835.727 557 839.335 544 832.921 534Z" fill="url(#paint0_linear_3_33)"/>
</g>
<path d="M587.424 321.88L564.864 289.08C574.784 285.72 587.104 274.04 587.104 257.24C587.104 247 583.744 237.88 577.824 232.12C571.104 225.4 563.424 221.88 545.984 221.88H505.664C501.984 221.88 501.184 223.64 501.184 226.52V322.36C501.184 326.04 502.784 327 505.664 327H521.504C524.384 327 526.144 326.04 526.144 322.36V244.28H547.424C555.744 244.28 562.144 249.56 562.144 257.88C562.144 265.4 554.784 270.84 546.944 270.84H543.744C540.064 270.84 539.104 272.6 539.104 275.48V288.28C539.104 292.76 539.424 294.52 540.864 296.44L558.144 322.2C560.384 325.56 562.304 327 566.144 327H585.024C588.064 327 588.864 324.12 587.424 321.88ZM653.506 305.08H643.426V243.96H653.026C656.706 243.96 657.666 242.2 657.666 239.32V226.36C657.666 223.48 656.706 221.72 653.026 221.72H608.546C604.866 221.72 603.906 223.48 603.906 226.36V239.32C603.906 242.2 604.866 243.96 608.546 243.96H618.306V305.08H608.226C604.546 305.08 603.586 306.84 603.586 309.72V322.36C603.586 325.24 604.546 327 608.226 327H653.506C657.186 327 658.146 325.24 658.146 322.36V309.72C658.146 306.84 657.186 305.08 653.506 305.08ZM773.24 221.56H757.88C752.6 221.56 751.8 225.08 750.68 227L728.6 266.36L706.68 227C705.4 225.08 704.76 221.56 699.32 221.56H683.48C679.8 221.56 678.84 223.32 678.84 226.2V322.36C678.84 326.04 680.6 327 683.48 327H699.32C702.2 327 703.96 326.04 703.96 322.36V268.12L720.12 296.12C720.92 297.4 722.2 299.48 724.6 299.48H732.6C735 299.48 736.44 297.4 737.24 296.12L753.24 268.12V322.36C753.24 326.04 755 327 757.88 327H773.24C776.12 327 777.88 326.04 777.88 322.36V226.2C777.88 223.32 776.92 221.56 773.24 221.56Z" fill="white"/>
<path d="M311.347 391.568C309.35 391.568 307.629 391.176 306.183 390.393C304.737 389.586 303.624 388.434 302.844 386.937C302.086 385.439 301.708 383.654 301.708 381.58C301.708 379.507 302.098 377.733 302.878 376.258C303.658 374.76 304.783 373.62 306.252 372.837C307.721 372.053 309.476 371.662 311.519 371.662C314.686 371.662 317.015 372.549 318.507 374.323C320.022 376.097 320.676 378.527 320.469 381.615H304.978L305.013 378.608L316.269 378.643C316.178 377.537 315.696 376.65 314.824 375.982C313.951 375.313 312.85 374.979 311.519 374.979C309.637 374.979 308.214 375.567 307.25 376.742C306.286 377.917 305.804 379.587 305.804 381.753C305.804 382.997 306.022 384.114 306.458 385.105C306.894 386.073 307.514 386.833 308.317 387.386C309.143 387.916 310.153 388.181 311.347 388.181C312.701 388.181 313.825 387.858 314.72 387.213C315.638 386.568 316.2 385.704 316.407 384.621H320.538C320.263 386.764 319.299 388.457 317.646 389.702C316.017 390.946 313.917 391.568 311.347 391.568Z" fill="white" fill-opacity="0.7"/>
<path d="M328.917 391.153C327.172 391.153 325.761 390.646 324.682 389.632C323.627 388.619 323.099 387.294 323.099 385.658V385.036C323.099 383.354 323.627 382.006 324.682 380.993C325.761 379.979 327.172 379.472 328.917 379.472H336.111V377.779C336.111 377.087 335.928 376.523 335.561 376.085C335.193 375.624 334.62 375.394 333.839 375.394H323.787V372.076H334.769C335.847 372.076 336.788 372.284 337.592 372.698C338.395 373.113 339.014 373.724 339.45 374.53C339.909 375.313 340.139 376.304 340.139 377.502V391.153H328.917ZM329.743 388.008H336.111V382.617H329.743C328.94 382.617 328.297 382.847 327.815 383.308C327.356 383.746 327.127 384.356 327.127 385.14V385.554C327.127 386.315 327.367 386.914 327.849 387.352C328.331 387.789 328.962 388.008 329.743 388.008Z" fill="white" fill-opacity="0.7"/>
<path d="M351.099 391.153V365.683H355.23V391.153H351.099ZM344.387 391.153V387.801H362.012V391.153H344.387ZM346.865 369.035V365.683H353.165V369.035H346.865Z" fill="white" fill-opacity="0.7"/>
<path d="M372.112 391.153V365.683H376.243V391.153H372.112ZM365.399 391.153V387.801H383.024V391.153H365.399ZM367.878 369.035V365.683H374.177V369.035H367.878Z" fill="white" fill-opacity="0.7"/>
<path d="M395.155 385.243L400.629 372.042H404.794L394.123 397.305H389.888L393.055 389.874L385.551 372.042H389.751L395.155 385.243Z" fill="white" fill-opacity="0.7"/>
<path d="M465.683 372.042C466.968 372.042 468.104 372.318 469.091 372.871C470.078 373.424 470.847 374.196 471.398 375.187C471.948 376.177 472.224 377.329 472.224 378.643V391.153H468.127V378.539C468.127 377.617 467.84 376.869 467.267 376.293C466.716 375.694 465.982 375.394 465.064 375.394H459.005V391.153H454.874V372.042H465.683Z" fill="white" fill-opacity="0.7"/>
<path d="M486.042 391.153C484.825 391.153 483.781 390.9 482.909 390.393C482.037 389.886 481.371 389.172 480.912 388.25C480.453 387.305 480.224 386.211 480.224 384.967V368.62L484.355 366.547V384.967C484.355 385.543 484.435 386.05 484.596 386.488C484.756 386.925 485.066 387.259 485.525 387.49C486.007 387.697 486.696 387.801 487.591 387.801H492.995V391.153H486.042ZM475.99 375.429V372.076H489.863V375.429H475.99Z" fill="white" fill-opacity="0.7"/>
<path d="M505.711 391.568C503.715 391.568 501.994 391.176 500.548 390.393C499.102 389.586 497.989 388.434 497.209 386.937C496.451 385.439 496.073 383.654 496.073 381.58C496.073 379.507 496.463 377.733 497.243 376.258C498.023 374.76 499.148 373.62 500.617 372.837C502.085 372.053 503.841 371.662 505.884 371.662C509.051 371.662 511.38 372.549 512.872 374.323C514.386 376.097 515.04 378.527 514.834 381.615H499.343L499.377 378.608L510.634 378.643C510.542 377.537 510.06 376.65 509.188 375.982C508.316 375.313 507.215 374.979 505.884 374.979C504.002 374.979 502.579 375.567 501.615 376.742C500.651 377.917 500.169 379.587 500.169 381.753C500.169 382.997 500.387 384.114 500.823 385.105C501.259 386.073 501.879 386.833 502.682 387.386C503.508 387.916 504.518 388.181 505.711 388.181C507.065 388.181 508.19 387.858 509.085 387.213C510.003 386.568 510.565 385.704 510.772 384.621H514.903C514.627 386.764 513.663 388.457 512.011 389.702C510.382 390.946 508.282 391.568 505.711 391.568Z" fill="white" fill-opacity="0.7"/>
<path d="M528.961 372.076C530.224 372.076 531.314 372.364 532.232 372.94C533.15 373.516 533.85 374.311 534.332 375.325C534.814 376.316 535.055 377.456 535.055 378.746V380.716H530.924V378.643C530.924 378.044 530.809 377.502 530.579 377.018C530.373 376.534 530.052 376.154 529.615 375.878C529.179 375.578 528.617 375.429 527.929 375.429H523.04V391.153H518.944V372.076H528.961Z" fill="white" fill-opacity="0.7"/>
<path d="M547.736 391.568C545.74 391.568 544.018 391.176 542.573 390.393C541.127 389.586 540.014 388.434 539.233 386.937C538.476 385.439 538.097 383.654 538.097 381.58C538.097 379.507 538.487 377.733 539.268 376.258C540.048 374.76 541.173 373.62 542.641 372.837C544.11 372.053 545.866 371.662 547.908 371.662C551.075 371.662 553.405 372.549 554.896 374.323C556.411 376.097 557.065 378.527 556.859 381.615H541.368L541.402 378.608L552.659 378.643C552.567 377.537 552.085 376.65 551.213 375.982C550.341 375.313 549.239 374.979 547.908 374.979C546.026 374.979 544.604 375.567 543.64 376.742C542.676 377.917 542.194 379.587 542.194 381.753C542.194 382.997 542.412 384.114 542.848 385.105C543.284 386.073 543.904 386.833 544.707 387.386C545.533 387.916 546.543 388.181 547.736 388.181C549.09 388.181 550.215 387.858 551.11 387.213C552.028 386.568 552.59 385.704 552.797 384.621H556.928C556.652 386.764 555.688 388.457 554.036 389.702C552.406 390.946 550.307 391.568 547.736 391.568Z" fill="white" fill-opacity="0.7"/>
<path d="M560.934 391.153V387.801H570.608C571.342 387.801 571.939 387.593 572.398 387.179C572.857 386.741 573.086 386.165 573.086 385.451C573.086 384.783 572.857 384.23 572.398 383.792C571.939 383.331 571.319 383.101 570.539 383.101H566.339C565.168 383.101 564.136 382.87 563.241 382.41C562.346 381.949 561.646 381.315 561.141 380.509C560.659 379.679 560.418 378.723 560.418 377.64C560.418 376.488 560.659 375.498 561.141 374.668C561.646 373.839 562.334 373.205 563.206 372.767C564.101 372.307 565.123 372.076 566.27 372.076H575.702V375.429H566.477C565.742 375.429 565.146 375.624 564.687 376.016C564.228 376.408 563.998 376.949 563.998 377.64C563.998 378.262 564.228 378.781 564.687 379.196C565.146 379.587 565.765 379.783 566.545 379.783H570.745C571.939 379.783 572.971 380.025 573.843 380.509C574.738 380.993 575.427 381.661 575.909 382.513C576.414 383.343 576.666 384.322 576.666 385.451C576.666 386.603 576.425 387.605 575.943 388.457C575.461 389.31 574.773 389.978 573.878 390.462C573.006 390.923 571.985 391.153 570.814 391.153H560.934Z" fill="white" fill-opacity="0.7"/>
<path d="M591.104 391.153C589.887 391.153 588.843 390.9 587.971 390.393C587.099 389.886 586.433 389.172 585.974 388.25C585.515 387.305 585.286 386.211 585.286 384.967V368.62L589.417 366.547V384.967C589.417 385.543 589.497 386.05 589.658 386.488C589.818 386.925 590.128 387.259 590.587 387.49C591.069 387.697 591.758 387.801 592.653 387.801H598.057V391.153H591.104ZM581.052 375.429V372.076H594.925V375.429H581.052Z" fill="white" fill-opacity="0.7"/>
<path d="M608.639 391.153V372.076H612.736V391.153H608.639ZM601.926 391.153V387.801H619.173V391.153H601.926ZM604.37 375.429V372.076H610.67V375.429H604.37ZM608.398 369.07V364.853H612.873V369.07H608.398Z" fill="white" fill-opacity="0.7"/>
<path d="M633.782 372.042C635.068 372.042 636.204 372.318 637.191 372.871C638.177 373.424 638.946 374.196 639.497 375.187C640.048 376.177 640.323 377.329 640.323 378.643V391.153H636.227V378.539C636.227 377.617 635.94 376.869 635.366 376.293C634.815 375.694 634.081 375.394 633.163 375.394H627.104V391.153H622.973V372.042H633.782Z" fill="white" fill-opacity="0.7"/>
<path d="M644.02 382.79V378.435C644.02 377.145 644.295 376.028 644.846 375.083C645.397 374.115 646.166 373.367 647.153 372.837C648.162 372.284 649.298 372.007 650.561 372.007L661.336 372.042V391.049C661.336 392.294 661.106 393.388 660.647 394.333C660.188 395.277 659.522 396.003 658.65 396.51C657.778 397.04 656.711 397.305 655.449 397.305H644.467V393.952H654.038C655.07 393.952 655.862 393.768 656.413 393.399C656.964 393.031 657.239 392.27 657.239 391.119V389.183H650.561C649.298 389.183 648.162 388.918 647.153 388.388C646.166 387.835 645.397 387.087 644.846 386.142C644.295 385.174 644.02 384.057 644.02 382.79ZM648.117 382.686C648.117 383.608 648.403 384.368 648.977 384.967C649.551 385.566 650.285 385.865 651.18 385.865H657.205V375.359H651.18C650.285 375.359 649.551 375.659 648.977 376.258C648.403 376.834 648.117 377.594 648.117 378.539V382.686Z" fill="white" fill-opacity="0.7"/>
<path d="M718.748 391.188C717.462 391.188 716.326 390.911 715.34 390.358C714.353 389.805 713.584 389.033 713.033 388.043C712.482 387.052 712.207 385.9 712.207 384.587V372.076H716.304V384.69C716.304 385.612 716.579 386.372 717.13 386.971C717.703 387.547 718.449 387.835 719.367 387.835H725.426V372.076H729.557V391.188H718.748Z" fill="white" fill-opacity="0.7"/>
<path d="M739.829 391.153V365.683H743.96V391.153H739.829ZM733.116 391.153V387.801H750.742V391.153H733.116ZM735.595 369.035V365.683H741.894V369.035H735.595Z" fill="white" fill-opacity="0.7"/>
<path d="M764.456 391.153C763.24 391.153 762.195 390.9 761.323 390.393C760.451 389.886 759.786 389.172 759.327 388.25C758.868 387.305 758.638 386.211 758.638 384.967V368.62L762.769 366.547V384.967C762.769 385.543 762.849 386.05 763.01 386.488C763.171 386.925 763.481 387.259 763.94 387.49C764.421 387.697 765.11 387.801 766.005 387.801H771.41V391.153H764.456ZM754.404 375.429V372.076H768.277V375.429H754.404Z" fill="white" fill-opacity="0.7"/>
<path d="M781.991 391.153V372.076H786.088V391.153H781.991ZM775.279 391.153V387.801H792.525V391.153H775.279ZM777.723 375.429V372.076H784.023V375.429H777.723ZM781.75 369.07V364.853H786.226V369.07H781.75Z" fill="white" fill-opacity="0.7"/>
<path d="M802.178 391.153V370.003C802.178 368.782 802.419 367.71 802.901 366.789C803.405 365.844 804.117 365.107 805.035 364.577C805.953 364.047 807.043 363.782 808.305 363.782H814.054V367.134H809.717C809.074 367.134 808.489 367.215 807.961 367.376C807.433 367.514 807.02 367.779 806.722 368.171C806.423 368.563 806.274 369.15 806.274 369.934V391.153H802.178ZM797.944 375.429V372.076H811.782V375.429H797.944ZM796.326 391.153V387.801H813.675V391.153H796.326Z" fill="white" fill-opacity="0.7"/>
<path d="M823.81 391.188C822.525 391.188 821.389 390.911 820.402 390.358C819.415 389.805 818.646 389.033 818.095 388.043C817.544 387.052 817.269 385.9 817.269 384.587V372.076H821.366V384.69C821.366 385.612 821.641 386.372 822.192 386.971C822.765 387.547 823.511 387.835 824.429 387.835H830.488V372.076H834.619V391.188H823.81Z" fill="white" fill-opacity="0.7"/>
<path d="M849.16 372.042C850.445 372.042 851.581 372.318 852.568 372.871C853.554 373.424 854.323 374.196 854.874 375.187C855.425 376.177 855.7 377.329 855.7 378.643V391.153H851.604V378.539C851.604 377.617 851.317 376.869 850.743 376.293C850.192 375.694 849.458 375.394 848.54 375.394H842.481V391.153H838.35V372.042H849.16Z" fill="white" fill-opacity="0.7"/>
<path d="M869.002 391.153C867.028 391.153 865.284 390.761 863.769 389.978C862.277 389.195 861.118 388.089 860.292 386.66C859.466 385.209 859.053 383.515 859.053 381.58C859.053 379.645 859.466 377.974 860.292 376.569C861.118 375.141 862.277 374.035 863.769 373.251C865.284 372.468 867.028 372.076 869.002 372.076H876.334V375.429H869.002C867.234 375.429 865.823 375.982 864.767 377.087C863.712 378.193 863.184 379.691 863.184 381.58C863.184 383.492 863.712 385.013 864.767 386.142C865.823 387.248 867.234 387.801 869.002 387.801H876.334V391.153H869.002Z" fill="white" fill-opacity="0.7"/>
<path d="M890.53 391.153C889.314 391.153 888.27 390.9 887.398 390.393C886.526 389.886 885.86 389.172 885.401 388.25C884.942 387.305 884.713 386.211 884.713 384.967V368.62L888.844 366.547V384.967C888.844 385.543 888.924 386.05 889.085 386.488C889.245 386.925 889.555 387.259 890.014 387.49C890.496 387.697 891.184 387.801 892.079 387.801H897.484V391.153H890.53ZM880.478 375.429V372.076H894.352V375.429H880.478Z" fill="white" fill-opacity="0.7"/>
<path d="M908.066 391.153V372.076H912.162V391.153H908.066ZM901.353 391.153V387.801H918.6V391.153H901.353ZM903.797 375.429V372.076H910.097V375.429H903.797ZM907.825 369.07V364.853H912.3V369.07H907.825Z" fill="white" fill-opacity="0.7"/>
<path d="M931.006 391.568C929.009 391.568 927.288 391.165 925.842 390.358C924.42 389.552 923.318 388.411 922.538 386.937C921.78 385.439 921.402 383.665 921.402 381.615C921.402 379.541 921.78 377.767 922.538 376.293C923.318 374.818 924.42 373.678 925.842 372.871C927.288 372.065 929.009 371.662 931.006 371.662C933.99 371.662 936.33 372.549 938.029 374.323C939.727 376.074 940.576 378.504 940.576 381.615C940.576 383.665 940.186 385.439 939.406 386.937C938.648 388.411 937.547 389.552 936.101 390.358C934.678 391.165 932.98 391.568 931.006 391.568ZM931.006 388.181C932.681 388.181 934.001 387.593 934.965 386.418C935.952 385.243 936.445 383.642 936.445 381.615C936.445 379.564 935.952 377.963 934.965 376.811C934.001 375.636 932.681 375.048 931.006 375.048C929.285 375.048 927.942 375.636 926.978 376.811C926.014 377.963 925.533 379.564 925.533 381.615C925.533 383.642 926.014 385.243 926.978 386.418C927.942 387.593 929.285 388.181 931.006 388.181Z" fill="white" fill-opacity="0.7"/>
<path d="M954.222 372.042C955.507 372.042 956.643 372.318 957.63 372.871C958.617 373.424 959.385 374.196 959.936 375.187C960.487 376.177 960.762 377.329 960.762 378.643V391.153H956.666V378.539C956.666 377.617 956.379 376.869 955.805 376.293C955.254 375.694 954.52 375.394 953.602 375.394H947.543V391.153H943.412V372.042H954.222Z" fill="white" fill-opacity="0.7"/>
<path d="M969.795 391.153C968.051 391.153 966.639 390.646 965.561 389.632C964.505 388.619 963.977 387.294 963.977 385.658V385.036C963.977 383.354 964.505 382.006 965.561 380.993C966.639 379.979 968.051 379.472 969.795 379.472H976.99V377.779C976.99 377.087 976.806 376.523 976.439 376.085C976.072 375.624 975.498 375.394 974.718 375.394H964.666V372.076H975.647C976.726 372.076 977.667 372.284 978.47 372.698C979.273 373.113 979.893 373.724 980.329 374.53C980.788 375.313 981.017 376.304 981.017 377.502V391.153H969.795ZM970.621 388.008H976.99V382.617H970.621C969.818 382.617 969.175 382.847 968.693 383.308C968.234 383.746 968.005 384.356 968.005 385.14V385.554C968.005 386.315 968.246 386.914 968.728 387.352C969.21 387.789 969.841 388.008 970.621 388.008Z" fill="white" fill-opacity="0.7"/>
<path d="M991.978 391.153V365.683H996.109V391.153H991.978ZM985.265 391.153V387.801H1002.89V391.153H985.265ZM987.744 369.035V365.683H994.043V369.035H987.744Z" fill="white" fill-opacity="0.7"/>
<path d="M434.299 416.451V412.822H440.289C441.689 412.822 442.813 412.43 443.662 411.647C444.511 410.84 444.936 409.792 444.936 408.502C444.936 407.258 444.534 406.256 443.731 405.495C442.928 404.735 441.861 404.355 440.53 404.355H434.299V400.726H440.53C442.32 400.726 443.88 401.049 445.211 401.694C446.565 402.316 447.61 403.214 448.344 404.389C449.078 405.564 449.446 406.935 449.446 408.502C449.446 410.092 449.067 411.485 448.31 412.684C447.552 413.882 446.485 414.815 445.108 415.483C443.754 416.128 442.159 416.451 440.323 416.451H434.299ZM431.201 424.848V400.726H435.538V424.848H431.201Z" fill="white" fill-opacity="0.7"/>
<path d="M463.298 405.772C464.56 405.772 465.65 406.06 466.568 406.636C467.486 407.212 468.186 408.007 468.668 409.02C469.15 410.011 469.391 411.151 469.391 412.442V414.412H465.26V412.338C465.26 411.739 465.145 411.197 464.916 410.714C464.709 410.23 464.388 409.85 463.952 409.573C463.516 409.274 462.953 409.124 462.265 409.124H457.377V424.848H453.28V405.772H463.298Z" fill="white" fill-opacity="0.7"/>
<path d="M481.866 425.263C479.869 425.263 478.148 424.86 476.702 424.054C475.279 423.247 474.178 422.107 473.397 420.632C472.64 419.135 472.261 417.361 472.261 415.31C472.261 413.236 472.64 411.462 473.397 409.988C474.178 408.513 475.279 407.373 476.702 406.567C478.148 405.76 479.869 405.357 481.866 405.357C484.849 405.357 487.19 406.244 488.888 408.018C490.587 409.769 491.436 412.2 491.436 415.31C491.436 417.361 491.046 419.135 490.265 420.632C489.508 422.107 488.407 423.247 486.961 424.054C485.538 424.86 483.84 425.263 481.866 425.263ZM481.866 421.876C483.541 421.876 484.861 421.289 485.825 420.114C486.812 418.939 487.305 417.338 487.305 415.31C487.305 413.26 486.812 411.658 485.825 410.506C484.861 409.331 483.541 408.744 481.866 408.744C480.145 408.744 478.802 409.331 477.838 410.506C476.874 411.658 476.392 413.26 476.392 415.31C476.392 417.338 476.874 418.939 477.838 420.114C478.802 421.289 480.145 421.876 481.866 421.876Z" fill="white" fill-opacity="0.7"/>
<path d="M494.307 416.485V412.131C494.307 410.84 494.582 409.723 495.133 408.778C495.684 407.811 496.452 407.062 497.439 406.532C498.449 405.979 499.585 405.703 500.847 405.703L511.622 405.737V424.745C511.622 425.989 511.393 427.083 510.934 428.028C510.475 428.973 509.809 429.698 508.937 430.205C508.065 430.735 506.998 431 505.736 431H494.754V427.648H504.324C505.357 427.648 506.149 427.463 506.699 427.095C507.25 426.726 507.526 425.966 507.526 424.814V422.879H500.847C499.585 422.879 498.449 422.614 497.439 422.084C496.452 421.531 495.684 420.782 495.133 419.837C494.582 418.87 494.307 417.752 494.307 416.485ZM498.403 416.381C498.403 417.303 498.69 418.063 499.264 418.662C499.837 419.261 500.572 419.561 501.467 419.561H507.491V409.055H501.467C500.572 409.055 499.837 409.354 499.264 409.953C498.69 410.529 498.403 411.29 498.403 412.234V416.381Z" fill="white" fill-opacity="0.7"/>
<path d="M526.335 405.772C527.597 405.772 528.687 406.06 529.605 406.636C530.523 407.212 531.223 408.007 531.705 409.02C532.187 410.011 532.428 411.151 532.428 412.442V414.412H528.297V412.338C528.297 411.739 528.182 411.197 527.953 410.714C527.746 410.23 527.425 409.85 526.989 409.573C526.553 409.274 525.991 409.124 525.302 409.124H520.414V424.848H516.317V405.772H526.335Z" fill="white" fill-opacity="0.7"/>
<path d="M541.667 424.848C539.923 424.848 538.512 424.342 537.433 423.328C536.377 422.314 535.849 420.989 535.849 419.354V418.731C535.849 417.05 536.377 415.702 537.433 414.688C538.512 413.674 539.923 413.167 541.667 413.167H548.862V411.474C548.862 410.783 548.678 410.218 548.311 409.781C547.944 409.32 547.37 409.089 546.59 409.089H536.538V405.772H547.519C548.598 405.772 549.539 405.979 550.342 406.394C551.145 406.808 551.765 407.419 552.201 408.225C552.66 409.009 552.89 409.999 552.89 411.197V424.848H541.667ZM542.493 421.704H548.862V416.312H542.493C541.69 416.312 541.048 416.543 540.566 417.003C540.107 417.441 539.877 418.052 539.877 418.835V419.25C539.877 420.01 540.118 420.609 540.6 421.047C541.082 421.485 541.713 421.704 542.493 421.704Z" fill="white" fill-opacity="0.7"/>
<path d="M555.795 424.848V405.772H569.909C571.194 405.772 572.296 406.037 573.213 406.567C574.131 407.096 574.831 407.845 575.313 408.813C575.795 409.758 576.036 410.875 576.036 412.165V424.848H572.146V411.82C572.146 411.013 571.94 410.368 571.527 409.884C571.114 409.377 570.574 409.124 569.909 409.124H567.843V424.848H563.988V409.124H559.685V424.848H555.795Z" fill="white" fill-opacity="0.7"/>
<path d="M576.807 424.848V405.772H590.921C592.206 405.772 593.308 406.037 594.226 406.567C595.144 407.096 595.844 407.845 596.326 408.813C596.808 409.758 597.049 410.875 597.049 412.165V424.848H593.159V411.82C593.159 411.013 592.952 410.368 592.539 409.884C592.126 409.377 591.587 409.124 590.921 409.124H588.856V424.848H585V409.124H580.697V424.848H576.807Z" fill="white" fill-opacity="0.7"/>
<path d="M606.013 424.848V405.772H610.109V424.848H606.013ZM599.3 424.848V421.496H616.546V424.848H599.3ZM601.744 409.124V405.772H608.044V409.124H601.744ZM605.772 402.765V398.549H610.247V402.765H605.772Z" fill="white" fill-opacity="0.7"/>
<path d="M631.156 405.737C632.441 405.737 633.577 406.014 634.564 406.567C635.551 407.119 636.32 407.891 636.87 408.882C637.421 409.873 637.697 411.025 637.697 412.338V424.848H633.6V412.234C633.6 411.313 633.313 410.564 632.739 409.988C632.189 409.389 631.454 409.089 630.536 409.089H624.478V424.848H620.347V405.737H631.156Z" fill="white" fill-opacity="0.7"/>
<path d="M641.393 416.485V412.131C641.393 410.84 641.669 409.723 642.22 408.778C642.77 407.811 643.539 407.062 644.526 406.532C645.536 405.979 646.672 405.703 647.934 405.703L658.709 405.737V424.745C658.709 425.989 658.479 427.083 658.021 428.028C657.562 428.973 656.896 429.698 656.024 430.205C655.152 430.735 654.085 431 652.822 431H641.841V427.648H651.411C652.444 427.648 653.235 427.463 653.786 427.095C654.337 426.726 654.612 425.966 654.612 424.814V422.879H647.934C646.672 422.879 645.536 422.614 644.526 422.084C643.539 421.531 642.77 420.782 642.22 419.837C641.669 418.87 641.393 417.752 641.393 416.485ZM645.49 416.381C645.49 417.303 645.777 418.063 646.351 418.662C646.924 419.261 647.659 419.561 648.554 419.561H654.578V409.055H648.554C647.659 409.055 646.924 409.354 646.351 409.953C645.777 410.529 645.49 411.29 645.49 412.234V416.381Z" fill="white" fill-opacity="0.7"/>
<path d="M684.279 424.848V400.726H688.616V421.22H700.871V424.848H684.279Z" fill="white" fill-opacity="0.7"/>
<path d="M709.766 424.848C708.022 424.848 706.611 424.342 705.532 423.328C704.477 422.314 703.949 420.989 703.949 419.354V418.731C703.949 417.05 704.477 415.702 705.532 414.688C706.611 413.674 708.022 413.167 709.766 413.167H716.961V411.474C716.961 410.783 716.778 410.218 716.41 409.781C716.043 409.32 715.469 409.089 714.689 409.089H704.637V405.772H715.619C716.697 405.772 717.638 405.979 718.441 406.394C719.245 406.808 719.864 407.419 720.3 408.225C720.759 409.009 720.989 409.999 720.989 411.197V424.848H709.766ZM710.593 421.704H716.961V416.312H710.593C709.789 416.312 709.147 416.543 708.665 417.003C708.206 417.441 707.976 418.052 707.976 418.835V419.25C707.976 420.01 708.217 420.609 708.699 421.047C709.181 421.485 709.812 421.704 710.593 421.704Z" fill="white" fill-opacity="0.7"/>
<path d="M736.218 405.737C737.503 405.737 738.639 406.014 739.626 406.567C740.613 407.119 741.382 407.891 741.932 408.882C742.483 409.873 742.759 411.025 742.759 412.338V424.848H738.662V412.234C738.662 411.313 738.375 410.564 737.801 409.988C737.251 409.389 736.516 409.089 735.598 409.089H729.54V424.848H725.409V405.737H736.218Z" fill="white" fill-opacity="0.7"/>
<path d="M746.455 416.485V412.131C746.455 410.84 746.731 409.723 747.282 408.778C747.832 407.811 748.601 407.062 749.588 406.532C750.598 405.979 751.734 405.703 752.996 405.703L763.771 405.737V424.745C763.771 425.989 763.542 427.083 763.083 428.028C762.624 428.973 761.958 429.698 761.086 430.205C760.214 430.735 759.147 431 757.884 431H746.903V427.648H756.473C757.506 427.648 758.298 427.463 758.848 427.095C759.399 426.726 759.674 425.966 759.674 424.814V422.879H752.996C751.734 422.879 750.598 422.614 749.588 422.084C748.601 421.531 747.832 420.782 747.282 419.837C746.731 418.87 746.455 417.752 746.455 416.485ZM750.552 416.381C750.552 417.303 750.839 418.063 751.413 418.662C751.986 419.261 752.721 419.561 753.616 419.561H759.64V409.055H753.616C752.721 409.055 751.986 409.354 751.413 409.953C750.839 410.529 750.552 411.29 750.552 412.234V416.381Z" fill="white" fill-opacity="0.7"/>
<path d="M773.905 424.883C772.62 424.883 771.484 424.607 770.497 424.054C769.51 423.501 768.742 422.729 768.191 421.738C767.64 420.747 767.365 419.595 767.365 418.282V405.772H771.461V418.386C771.461 419.307 771.736 420.068 772.287 420.667C772.861 421.243 773.607 421.531 774.525 421.531H780.584V405.772H784.715V424.883H773.905Z" fill="white" fill-opacity="0.7"/>
<path d="M793.816 424.848C792.072 424.848 790.66 424.342 789.582 423.328C788.526 422.314 787.998 420.989 787.998 419.354V418.731C787.998 417.05 788.526 415.702 789.582 414.688C790.66 413.674 792.072 413.167 793.816 413.167H801.011V411.474C801.011 410.783 800.827 410.218 800.46 409.781C800.093 409.32 799.519 409.089 798.739 409.089H788.687V405.772H799.668C800.747 405.772 801.688 405.979 802.491 406.394C803.294 406.808 803.914 407.419 804.35 408.225C804.809 409.009 805.038 409.999 805.038 411.197V424.848H793.816ZM794.642 421.704H801.011V416.312H794.642C793.839 416.312 793.196 416.543 792.714 417.003C792.255 417.441 792.026 418.052 792.026 418.835V419.25C792.026 420.01 792.267 420.609 792.749 421.047C793.231 421.485 793.862 421.704 794.642 421.704Z" fill="white" fill-opacity="0.7"/>
<path d="M809.493 416.485V412.131C809.493 410.84 809.768 409.723 810.319 408.778C810.87 407.811 811.639 407.062 812.625 406.532C813.635 405.979 814.771 405.703 816.033 405.703L826.808 405.737V424.745C826.808 425.989 826.579 427.083 826.12 428.028C825.661 428.973 824.995 429.698 824.123 430.205C823.251 430.735 822.184 431 820.922 431H809.94V427.648H819.51C820.543 427.648 821.335 427.463 821.886 427.095C822.436 426.726 822.712 425.966 822.712 424.814V422.879H816.033C814.771 422.879 813.635 422.614 812.625 422.084C811.639 421.531 810.87 420.782 810.319 419.837C809.768 418.87 809.493 417.752 809.493 416.485ZM813.589 416.381C813.589 417.303 813.876 418.063 814.45 418.662C815.024 419.261 815.758 419.561 816.653 419.561H822.677V409.055H816.653C815.758 409.055 815.024 409.354 814.45 409.953C813.876 410.529 813.589 411.29 813.589 412.234V416.381Z" fill="white" fill-opacity="0.7"/>
<path d="M839.283 425.263C837.287 425.263 835.566 424.871 834.12 424.088C832.674 423.282 831.561 422.13 830.78 420.632C830.023 419.135 829.644 417.349 829.644 415.276C829.644 413.202 830.035 411.428 830.815 409.953C831.595 408.456 832.72 407.315 834.188 406.532C835.657 405.749 837.413 405.357 839.455 405.357C842.623 405.357 844.952 406.244 846.444 408.018C847.958 409.792 848.612 412.223 848.406 415.31H832.915L832.949 412.303L844.206 412.338C844.114 411.232 843.632 410.345 842.76 409.677C841.888 409.009 840.787 408.675 839.455 408.675C837.574 408.675 836.151 409.262 835.187 410.437C834.223 411.612 833.741 413.283 833.741 415.448C833.741 416.692 833.959 417.81 834.395 418.801C834.831 419.768 835.451 420.529 836.254 421.081C837.08 421.611 838.09 421.876 839.283 421.876C840.637 421.876 841.762 421.554 842.657 420.909C843.575 420.264 844.137 419.4 844.344 418.317H848.475C848.199 420.459 847.235 422.153 845.583 423.397C843.954 424.641 841.854 425.263 839.283 425.263Z" fill="white" fill-opacity="0.7"/>
<path d="M280.873 378.971V374.478H288.231C289.35 374.478 290.34 374.291 291.2 373.917C292.061 373.513 292.735 372.966 293.223 372.275C293.71 371.555 293.954 370.734 293.954 369.813C293.954 368.92 293.739 368.157 293.309 367.523C292.878 366.889 292.29 366.4 291.544 366.054C290.798 365.709 289.952 365.536 289.006 365.536H280.873V361H289.006C291.042 361 292.85 361.346 294.427 362.037C296.034 362.728 297.296 363.736 298.214 365.061C299.132 366.357 299.591 367.941 299.591 369.813C299.591 370.965 299.319 372.088 298.774 373.182C298.228 374.277 297.454 375.27 296.45 376.163C295.446 377.027 294.227 377.718 292.792 378.236C291.358 378.726 289.737 378.971 287.93 378.971H280.873ZM277 391.153V361H282.422V391.153H277ZM293.954 391.153C293.839 389.828 293.524 388.518 293.007 387.222C292.491 385.897 291.76 384.63 290.813 383.42C289.895 382.211 288.762 381.102 287.413 380.094C286.065 379.057 284.487 378.164 282.68 377.416L288.704 376.12C290.512 377.041 292.075 378.078 293.395 379.23C294.714 380.382 295.804 381.62 296.665 382.945C297.554 384.241 298.228 385.595 298.687 387.006C299.146 388.388 299.419 389.771 299.505 391.153H293.954Z" fill="white"/>
<path d="M437.301 391.153V361H442.679V391.153H437.301ZM429.985 361H449.995V365.536H429.985V361ZM429.985 386.617H449.995V391.153H429.985V386.617Z" fill="white"/>
<path d="M685.236 391.153V361H692.766L696.467 375.817L697.586 381.26L698.704 375.817L702.448 361H709.591V391.153H704.428V376.163L704.6 369.985L703.137 376.163L699.436 391.153H695.391L691.733 376.163L690.313 369.856L690.4 376.163V391.153H685.236Z" fill="white"/>
<defs>
<linearGradient id="paint0_linear_3_33" x1="444" y1="557" x2="444" y2="84" gradientUnits="userSpaceOnUse">
<stop stop-color="#FF97D3" stop-opacity="0.05"/>
<stop offset="1" stop-color="#FF0844"/>
</linearGradient>
</defs>
</svg>
